<svg width="122" height="99" viewBox="0 0 122 99" fill="none" xmlns="http://www.w3.org/2000/svg">
<mask id="mask0_84_263" style="mask-type:luminance" maskUnits="userSpaceOnUse" x="0" y="0" width="122" height="99">
<path d="M0.935547 0.86499H121.056V98.6552H0.935547V0.86499Z" fill="white"/>
</mask>
<g mask="url(#mask0_84_263)">
<path d="M93.3071 64.7615H12.4111C11.3324 64.7615 10.3078 64.2945 9.60001 63.4804C8.89226 62.6662 8.57261 61.5866 8.72292 60.5185L16.2499 6.9622C16.5067 5.13453 18.0923 3.75623 19.9381 3.75623H117.328C118.596 3.75623 119.765 4.39187 120.454 5.45646C121.144 6.52104 121.245 7.84767 120.726 9.00479L96.7054 62.5613C96.1058 63.8978 94.772 64.7615 93.3071 64.7615ZM19.9379 5.50202C18.9573 5.50202 18.115 6.23421 17.9784 7.20522L10.4518 60.7617C10.372 61.3291 10.542 61.9026 10.9179 62.3352C11.2938 62.7678 11.8381 63.0157 12.4113 63.0157H93.3073C94.0854 63.0157 94.7942 62.5569 95.1128 61.8467L119.133 8.29041C119.413 7.66646 119.361 6.97931 118.989 6.4053C118.617 5.8311 118.012 5.50185 117.328 5.50185H19.9379V5.50202Z" fill="#FF4000"/>
<path d="M79.6736 86.6006H12.1184C10.2378 86.6006 8.45312 85.7852 7.22216 84.3636C5.99102 82.9418 5.43935 81.059 5.70838 79.1978L10.244 47.8129C10.3127 47.3358 10.7553 47.0044 11.2326 47.0739C11.7097 47.1429 12.0407 47.5856 11.9716 48.0625L7.43602 79.4474C7.23962 80.807 7.64272 82.1824 8.5418 83.2208C9.44089 84.2592 10.7446 84.8548 12.1182 84.8548H79.6736C80.1557 84.8548 80.5465 85.2455 80.5465 85.7277C80.5465 86.2099 80.1557 86.6006 79.6736 86.6006Z" fill="#FF4000"/>
<path d="M17.4061 98.6552C20.346 98.6552 22.7292 96.272 22.7292 93.3321C22.7292 90.3923 20.346 88.009 17.4061 88.009C14.4662 88.009 12.083 90.3923 12.083 93.3321C12.083 96.272 14.4662 98.6552 17.4061 98.6552Z" fill="#FF4000"/>
<path d="M4.69948 8.39286C6.77825 8.39286 8.46342 6.70769 8.46342 4.62893C8.46342 2.55016 6.77825 0.86499 4.69948 0.86499C2.62072 0.86499 0.935547 2.55016 0.935547 4.62893C0.935547 6.70769 2.62072 8.39286 4.69948 8.39286Z" fill="#FF4000"/>
<path d="M67.3885 98.6552C70.3284 98.6552 72.7116 96.272 72.7116 93.3321C72.7116 90.3923 70.3284 88.009 67.3885 88.009C64.4487 88.009 62.0654 90.3923 62.0654 93.3321C62.0654 96.272 64.4487 98.6552 67.3885 98.6552Z" fill="#FF4000"/>
<path d="M29.4089 5.50202H4.71762C4.23544 5.50202 3.84473 5.11131 3.84473 4.62912C3.84473 4.14693 4.23544 3.75623 4.71762 3.75623H29.4091C29.8913 3.75623 30.282 4.14693 30.282 4.62912C30.282 5.11131 29.8911 5.50202 29.4089 5.50202Z" fill="#FF4000"/>
</g>
</svg>
